<svg width="449" height="443" viewBox="0 0 449 443" fill="none" xmlns="http://www.w3.org/2000/svg">
<path d="M44.3537 314H0.194602L99.8381 119.091H152.943L187.776 314H143.616L119.919 163.631H118.396L44.3537 314ZM54.4418 237.388H158.749L153.229 269.555H48.9219L54.4418 237.388ZM284.802 119.091L252.444 314H211.235L243.593 119.091H284.802Z" fill="#919191"/>
<path d="M317.533 197.203H373.934V202.045C370.357 202.045 367.827 202.656 366.344 203.877C364.948 205.098 364.25 206.712 364.25 208.719C364.25 210.812 365.777 214.04 368.83 218.402C369.79 219.798 371.229 221.979 373.148 224.945L381.654 238.555L391.469 224.945C397.75 216.309 400.891 210.856 400.891 208.588C400.891 206.756 400.149 205.229 398.666 204.008C397.183 202.699 394.784 202.045 391.469 202.045V197.203H432.035V202.045C427.76 202.307 424.053 203.484 420.912 205.578C416.637 208.544 410.792 215 403.377 224.945L387.02 246.799L416.855 289.721C424.184 300.277 429.418 306.645 432.559 308.826C435.699 310.92 439.756 312.098 444.729 312.359V317.07H388.197V312.359C392.123 312.359 395.176 311.487 397.357 309.742C399.015 308.521 399.844 306.907 399.844 304.9C399.844 302.894 397.052 297.834 391.469 289.721L373.934 264.072L354.697 289.721C348.765 297.66 345.799 302.37 345.799 303.854C345.799 305.947 346.758 307.867 348.678 309.611C350.684 311.269 353.65 312.185 357.576 312.359V317.07H318.449V312.359C321.59 311.923 324.338 310.833 326.693 309.088C330.008 306.558 335.592 300.102 343.443 289.721L368.568 256.352L345.799 223.375C339.343 213.953 334.327 208.064 330.75 205.709C327.26 203.266 322.855 202.045 317.533 202.045V197.203Z" fill="#00C2FF"/>
</svg>
