<svg width="458" height="202" viewBox="0 0 458 202" fill="none" xmlns="http://www.w3.org/2000/svg">
<path d="M44.3537 197H0.194602L99.8381 2.0909H152.943L187.776 197H143.616L119.919 46.6307H118.396L44.3537 197ZM54.4418 120.388H158.749L153.229 152.555H48.9219L54.4418 120.388ZM284.802 2.0909L252.444 197H211.235L243.593 2.0909H284.802Z" fill="#070707"/>
<path d="M325.309 73.3477H381.71V78.1895C378.133 78.1895 375.603 78.8001 374.12 80.0215C372.724 81.2428 372.026 82.8568 372.026 84.8633C372.026 86.957 373.553 90.1849 376.606 94.5469C377.566 95.9427 379.005 98.1237 380.924 101.09L389.43 114.699L399.245 101.09C405.526 92.4531 408.667 87.0007 408.667 84.7324C408.667 82.9004 407.925 81.3737 406.442 80.1523C404.959 78.8438 402.56 78.1895 399.245 78.1895V73.3477H439.811V78.1895C435.536 78.4512 431.829 79.6289 428.688 81.7227C424.413 84.6888 418.568 91.1445 411.153 101.09L394.796 122.943L424.631 165.865C431.96 176.421 437.194 182.79 440.335 184.971C443.475 187.064 447.532 188.242 452.505 188.504V193.215H395.973V188.504C399.899 188.504 402.952 187.632 405.133 185.887C406.791 184.665 407.62 183.051 407.62 181.045C407.62 179.038 404.828 173.979 399.245 165.865L381.71 140.217L362.473 165.865C356.541 173.804 353.575 178.515 353.575 179.998C353.575 182.092 354.534 184.011 356.454 185.756C358.46 187.413 361.426 188.329 365.352 188.504V193.215H326.225V188.504C329.366 188.068 332.114 186.977 334.469 185.232C337.784 182.702 343.368 176.247 351.219 165.865L376.344 132.496L353.575 99.5195C347.119 90.0977 342.103 84.209 338.526 81.8535C335.036 79.4108 330.631 78.1895 325.309 78.1895V73.3477Z" fill="#00C2FF"/>
</svg>
