<svg width="1322" height="250" viewBox="0 0 1322 250" fill="none" xmlns="http://www.w3.org/2000/svg">
<path d="M44.3537 195H0.194602L99.8381 0.0909033H152.943L187.776 195H143.616L119.919 44.6307H118.396L44.3537 195ZM54.4418 118.388H158.749L153.229 150.555H48.9219L54.4418 118.388ZM284.802 0.0909033L252.444 195H211.235L243.593 0.0909033H284.802Z" fill="black"/>
<path d="M425.464 198.045C411.379 198.045 399.228 194.937 389.013 188.719C378.862 182.438 371.026 173.682 365.506 162.452C360.05 151.158 357.322 138.025 357.322 123.051C357.322 108.078 360.05 94.8807 365.506 83.4602C371.026 71.9763 378.703 63.0303 388.538 56.6222C398.435 50.1506 409.983 46.9148 423.18 46.9148C430.793 46.9148 438.312 48.1837 445.735 50.7216C453.158 53.2595 459.915 57.3835 466.006 63.0938C472.097 68.7405 476.951 76.2273 480.567 85.554C484.184 94.8807 485.992 106.365 485.992 120.006V129.523H373.31V110.108H463.151C463.151 101.86 461.502 94.5 458.202 88.0284C454.967 81.5568 450.335 76.4493 444.308 72.706C438.344 68.9626 431.301 67.0909 423.18 67.0909C414.234 67.0909 406.493 69.3115 399.958 73.7528C393.487 78.1307 388.506 83.8409 385.016 90.8835C381.527 97.9261 379.782 105.476 379.782 113.534V126.477C379.782 137.517 381.685 146.875 385.492 154.553C389.362 162.166 394.724 167.972 401.576 171.969C408.428 175.902 416.391 177.869 425.464 177.869C431.364 177.869 436.694 177.045 441.452 175.395C446.274 173.682 450.43 171.144 453.92 167.781C457.409 164.355 460.106 160.104 462.009 155.028L483.708 161.119C481.424 168.479 477.585 174.951 472.192 180.534C466.799 186.054 460.138 190.368 452.207 193.477C444.276 196.523 435.362 198.045 425.464 198.045ZM532.983 48.8182L568.005 108.585L603.028 48.8182H628.914L581.71 121.909L628.914 195H603.028L568.005 138.278L532.983 195H507.096L553.539 121.909L507.096 48.8182H532.983ZM660.963 249.818V48.8182H682.662V72.0398H685.327C686.976 69.5019 689.26 66.2661 692.179 62.3324C695.161 58.3352 699.412 54.7822 704.932 51.6733C710.515 48.5009 718.065 46.9148 727.582 46.9148C739.891 46.9148 750.741 49.992 760.131 56.1463C769.521 62.3007 776.849 71.0246 782.115 82.3182C787.381 93.6117 790.014 106.936 790.014 122.29C790.014 137.771 787.381 151.19 782.115 162.547C776.849 173.84 769.553 182.596 760.226 188.814C750.899 194.968 740.145 198.045 727.963 198.045C718.573 198.045 711.054 196.491 705.408 193.382C699.761 190.21 695.415 186.625 692.369 182.628C689.324 178.567 686.976 175.205 685.327 172.54H683.423V249.818H660.963ZM683.043 121.909C683.043 132.949 684.661 142.688 687.896 151.126C691.132 159.501 695.859 166.068 702.077 170.827C708.295 175.522 715.908 177.869 724.918 177.869C734.308 177.869 742.143 175.395 748.425 170.446C754.769 165.434 759.528 158.708 762.7 150.27C765.936 141.768 767.554 132.314 767.554 121.909C767.554 111.631 765.968 102.367 762.795 94.1193C759.687 85.8078 754.96 79.241 748.615 74.419C742.334 69.5336 734.435 67.0909 724.918 67.0909C715.781 67.0909 708.104 69.4067 701.886 74.0384C695.669 78.6065 690.973 85.0147 687.801 93.2628C684.629 101.447 683.043 110.996 683.043 121.909ZM824.276 195V48.8182H845.974V70.8977H847.497C850.162 63.6648 854.984 57.7959 861.963 53.2912C868.942 48.7864 876.81 46.5341 885.565 46.5341C887.215 46.5341 889.277 46.5658 891.751 46.6293C894.226 46.6927 896.098 46.7879 897.366 46.9148V69.7557C896.605 69.5653 894.86 69.2798 892.132 68.8991C889.467 68.455 886.644 68.233 883.662 68.233C876.556 68.233 870.211 69.724 864.628 72.706C859.108 75.6245 854.73 79.6851 851.494 84.8878C848.322 90.027 846.736 95.8958 846.736 102.494V195H824.276ZM980.831 198.045C966.746 198.045 954.596 194.937 944.381 188.719C934.229 182.438 926.393 173.682 920.874 162.452C915.417 151.158 912.689 138.025 912.689 123.051C912.689 108.078 915.417 94.8807 920.874 83.4602C926.393 71.9763 934.071 63.0303 943.905 56.6222C953.803 50.1506 965.35 46.9148 978.547 46.9148C986.161 46.9148 993.679 48.1837 1001.1 50.7216C1008.53 53.2595 1015.28 57.3835 1021.37 63.0938C1027.46 68.7405 1032.32 76.2273 1035.93 85.554C1039.55 94.8807 1041.36 106.365 1041.36 120.006V129.523H928.678V110.108H1018.52C1018.52 101.86 1016.87 94.5 1013.57 88.0284C1010.33 81.5568 1005.7 76.4493 999.675 72.706C993.711 68.9626 986.668 67.0909 978.547 67.0909C969.601 67.0909 961.86 69.3115 955.325 73.7528C948.854 78.1307 943.873 83.8409 940.384 90.8835C936.894 97.9261 935.149 105.476 935.149 113.534V126.477C935.149 137.517 937.053 146.875 940.859 154.553C944.73 162.166 950.091 167.972 956.943 171.969C963.795 175.902 971.758 177.869 980.831 177.869C986.732 177.869 992.061 177.045 996.82 175.395C1001.64 173.682 1005.8 171.144 1009.29 167.781C1012.78 164.355 1015.47 160.104 1017.38 155.028L1039.08 161.119C1036.79 168.479 1032.95 174.951 1027.56 180.534C1022.17 186.054 1015.5 190.368 1007.57 193.477C999.643 196.523 990.729 198.045 980.831 198.045ZM1179.07 81.5568L1158.89 87.267C1157.63 83.9043 1155.75 80.6368 1153.28 77.4645C1150.87 74.2287 1147.57 71.5639 1143.38 69.4702C1139.19 67.3764 1133.83 66.3295 1127.3 66.3295C1118.35 66.3295 1110.9 68.3916 1104.93 72.5156C1099.03 76.5762 1096.08 81.7472 1096.08 88.0284C1096.08 93.6117 1098.11 98.0213 1102.17 101.257C1106.23 104.493 1112.58 107.189 1121.21 109.347L1142.91 114.676C1155.98 117.848 1165.72 122.702 1172.12 129.237C1178.53 135.709 1181.74 144.052 1181.74 154.267C1181.74 162.642 1179.32 170.129 1174.5 176.727C1169.74 183.326 1163.08 188.528 1154.52 192.335C1145.95 196.142 1135.99 198.045 1124.63 198.045C1109.72 198.045 1097.38 194.81 1087.61 188.338C1077.84 181.866 1071.66 172.413 1069.05 159.977L1090.37 154.648C1092.4 162.515 1096.24 168.416 1101.89 172.349C1107.6 176.283 1115.05 178.25 1124.25 178.25C1134.72 178.25 1143.03 176.029 1149.19 171.588C1155.41 167.083 1158.51 161.69 1158.51 155.409C1158.51 150.333 1156.74 146.082 1153.18 142.656C1149.63 139.167 1144.18 136.565 1136.82 134.852L1112.45 129.142C1099.06 125.97 1089.23 121.053 1082.95 114.391C1076.73 107.665 1073.62 99.2585 1073.62 89.1705C1073.62 80.9223 1075.94 73.6259 1080.57 67.2812C1085.26 60.9366 1091.64 55.956 1099.7 52.3395C1107.82 48.723 1117.02 46.9148 1127.3 46.9148C1141.76 46.9148 1153.12 50.0871 1161.37 56.4318C1169.68 62.7765 1175.58 71.1515 1179.07 81.5568ZM1319.09 81.5568L1298.91 87.267C1297.65 83.9043 1295.77 80.6368 1293.3 77.4645C1290.89 74.2287 1287.59 71.5639 1283.4 69.4702C1279.21 67.3764 1273.85 66.3295 1267.32 66.3295C1258.37 66.3295 1250.92 68.3916 1244.95 72.5156C1239.05 76.5762 1236.1 81.7472 1236.1 88.0284C1236.1 93.6117 1238.13 98.0213 1242.19 101.257C1246.25 104.493 1252.6 107.189 1261.23 109.347L1282.93 114.676C1296 117.848 1305.73 122.702 1312.14 129.237C1318.55 135.709 1321.76 144.052 1321.76 154.267C1321.76 162.642 1319.34 170.129 1314.52 176.727C1309.76 183.326 1303.1 188.528 1294.54 192.335C1285.97 196.142 1276.01 198.045 1264.65 198.045C1249.74 198.045 1237.4 194.81 1227.63 188.338C1217.86 181.866 1211.67 172.413 1209.07 159.977L1230.39 154.648C1232.42 162.515 1236.26 168.416 1241.91 172.349C1247.62 176.283 1255.07 178.25 1264.27 178.25C1274.74 178.25 1283.05 176.029 1289.21 171.588C1295.42 167.083 1298.53 161.69 1298.53 155.409C1298.53 150.333 1296.76 146.082 1293.2 142.656C1289.65 139.167 1284.19 136.565 1276.83 134.852L1252.47 129.142C1239.08 125.97 1229.25 121.053 1222.97 114.391C1216.75 107.665 1213.64 99.2585 1213.64 89.1705C1213.64 80.9223 1215.96 73.6259 1220.59 67.2812C1225.28 60.9366 1231.66 55.956 1239.72 52.3395C1247.84 48.723 1257.04 46.9148 1267.32 46.9148C1281.78 46.9148 1293.14 50.0871 1301.39 56.4318C1309.7 62.7765 1315.6 71.1515 1319.09 81.5568Z" fill="#00C2FF"/>
</svg>
